# xmcd CD database file
#
# Track frame offsets:
#	150
#	14587
#	26712
#	42400
#	57475
#	71019
#	90541
#	113348
#	128061
#	144761
#	166338
#	189187
#	204672
#
# Disc length: 2940 seconds
#
# Revision: 0
# Processed by: cddbd v1.5.2PL0 Copyright (c) Steve Scherf et al.
# Submitted via: CDex 1.70beta2
#
DISCID=ac0b7a0d
DTITLE=Various Artist - Le pop for AfternoonTea
DYEAR=2006
DGENRE=Jazz
TTITLE0=Communication's Lost - Cocosuma
TTITLE1=Girl in Sports Car - Alan Hawkshaw
TTITLE2=Thinking of You - Ikon
TTITLE3=Emma - Elie Semuoun
TTITLE4=Space Cowboy - Jazzamor
TTITLE5=Il Cerchio Rosso - Nicola Conte
TTITLE6=It Might As Well Be Spring "Les Printemps" - Palmyra and Levita with Joa~o Donato
TTITLE7=Never Let Him Go - Rita Calypso
TTITLE8=Peter Pan - Sunshine Day
TTITLE9=Seaside - Buscemi(Bossa Pour Isabel Version Nicola Conta Mix)
TTITLE10=Lili - Mario Castro-Neves and Samba S.A.
TTITLE11=On a Clear Day - Mario Castro-Neves and Samba S.A.
TTITLE12=Na Estrada - Acid-X
EXTD=YEAR: 2006
EXTT0=
EXTT1=
EXTT2=
EXTT3=
EXTT4=
EXTT5=
EXTT6=
EXTT7=
EXTT8=
EXTT9=
EXTT10=
EXTT11=
EXTT12=
PLAYORDER=
